<!DOCTYPE svg PUBLIC "-//W3C//DTD SVG 1.1//EN" "http://www.w3.org/Graphics/SVG/1.1/DTD/svg11.dtd">

<!-- Uploaded to: SVG Repo, www.svgrepo.com, Transformed by: SVG Repo Mixer Tools -->
<svg fill="#000000" width="256px" height="256px" viewBox="0 0 500 500" id="Layer_1" version="1.1" xml:space="preserve" xmlns="http://www.w3.org/2000/svg" xmlns:xlink="http://www.w3.org/1999/xlink" transform="rotate(180)">

<g id="SVGRepo_bgCarrier" stroke-width="0"/>

<g id="SVGRepo_tracerCarrier" stroke-linecap="round" stroke-linejoin="round"/>

<g id="SVGRepo_iconCarrier"> <g id="plane"> <g> <path d="M250.06,482.19l-2.97-18.09c-22.8-139.1-33.06-247.74-30.48-322.88c2.15-62.75,12.93-88.92,21.6-99.82 c5.89-7.41,10.96-7.95,11.52-7.99l0.2-0.01l0.2,0.01c0.56,0.04,5.63,0.57,11.52,7.98c8.67,10.9,19.47,37.06,21.66,99.81 c2.62,75.14-7.57,183.78-30.29,322.9L250.06,482.19z M249.92,39.45c-0.95,0.28-4.03,1.55-7.8,6.69 c-7.96,10.85-17.83,36.76-19.62,98.55c-2.06,71.27,7.2,172.14,27.54,300.06c20.26-127.93,29.46-228.81,27.36-300.08 c-1.82-61.78-11.71-87.69-19.68-98.54C253.95,41,250.87,39.74,249.92,39.45z"/> </g> <g> <path d="M236.42,79.29c-1.79,0-3.25-1.46-3.25-3.24l0-4.11c0-2.5,0.97-4.85,2.74-6.62c1.77-1.77,4.12-2.74,6.62-2.75l14.78,0 c0,0,0,0,0,0c5.16,0,9.36,4.2,9.37,9.36l0,4.11c0,1.79-1.46,3.24-3.24,3.25L236.42,79.29z M257.32,68.57 C257.32,68.57,257.32,68.57,257.32,68.57l-14.78,0c-0.9,0-1.74,0.35-2.38,0.99s-0.99,1.48-0.98,2.38l0,1.35l21.51-0.01v-1.35 C260.68,70.08,259.18,68.57,257.32,68.57z"/> </g> <g> <g> <path d="M324.5,459.96l-74.6-14.3l0.45-2.87c1.26-7.98,2.56-16.46,3.98-25.92l0.59-3.93l59.06,26.85L324.5,459.96z M256.73,440.86l56.71,10.87l-3.82-7.33l-49.94-22.71C258.64,428.52,257.67,434.84,256.73,440.86z"/> </g> <g> <path d="M175.6,460.01l10.5-20.17l59.04-26.89l0.59,3.93c1.43,9.48,2.74,17.96,4,25.92l0.45,2.87L175.6,460.01z M190.47,444.44 l-3.82,7.33l56.71-10.9c-0.95-6.01-1.92-12.33-2.96-19.16L190.47,444.44z"/> </g> <g> <path d="M476.12,304.99L309.75,272.4l-37.66,1.08l0.3-3.36c2.53-28.33,4.17-54.69,4.88-78.34l0.14-4.6l28.52,13.59l-0.09-4.25 l0-0.06c0.1-5.61,4.71-10.07,10.36-9.98l2.53,0.05c5.61,0.1,10.08,4.75,9.98,10.36l-0.18,14.65l60.84,28.99l0.09-4.88 c0.05-2.72,1.16-5.25,3.11-7.13c1.96-1.88,4.54-2.89,7.25-2.84l2.53,0.05c2.72,0.05,5.25,1.16,7.13,3.11s2.89,4.53,2.84,7.25 l-0.29,15.26l55.04,26.23c4.87,2.32,8.06,7.12,8.33,12.51L476.12,304.99z M310.25,266.38l159.5,31.24l-0.35-7.27 c-0.16-3.18-2.04-6.01-4.92-7.38l-58.52-27.89l0.36-19.12c0.04-2.3-1.79-4.2-4.09-4.25l-2.53-0.05c-2.33-0.02-4.2,1.79-4.25,4.09 l-0.27,14.19l-72.71-34.65l0.22-18.5c0.02-1.13-0.39-2.19-1.17-2.99c-0.77-0.8-1.81-1.26-2.93-1.28l-2.53-0.05 c-1.07-0.03-2.17,0.39-2.97,1.17c-0.79,0.76-1.24,1.78-1.27,2.87l0.28,13.84l-29-13.82c-0.75,21.62-2.24,45.38-4.45,70.74 L310.25,266.38z"/> </g> <g> <path d="M23.88,305.13l0.72-14.92c0.26-5.39,3.45-10.19,8.32-12.51l55.02-26.26l-0.29-15.25c-0.11-5.61,4.36-10.26,9.97-10.36 l2.52-0.05c2.7-0.05,5.29,0.96,7.25,2.84c1.96,1.88,3.06,4.42,3.12,7.13l0.09,4.88l60.84-29.04l-0.21-14.65 c-0.11-5.59,4.36-10.24,9.97-10.35l2.53-0.05c2.69-0.07,5.29,0.96,7.25,2.84c1.96,1.88,3.06,4.42,3.12,7.13l0,0.06l-0.1,4.25 l28.53-13.62l0.14,4.6c0.72,23.65,2.38,50.01,4.92,78.34l0.3,3.36l-37.66-1.06L23.88,305.13z M100.34,231.76 c-0.03,0-0.05,0-0.08,0l-2.52,0.05c-2.3,0.04-4.13,1.95-4.09,4.25l0.37,19.12L35.5,283.11c-2.88,1.37-4.76,4.2-4.91,7.39 l-0.35,7.27l159.49-31.34l31.59,0.89c-2.23-25.37-3.74-49.12-4.49-70.74l-29.05,13.86l0.32-13.87c-0.04-1.09-0.49-2.11-1.28-2.87 c-0.8-0.77-1.85-1.19-2.97-1.16l-2.52,0.05c-2.3,0.04-4.13,1.95-4.09,4.25l0.26,18.51l-72.72,34.71l-0.27-14.19 C104.46,233.58,102.6,231.76,100.34,231.76z"/> </g> </g> </g> </g>

</svg>